<svg width="80" height="80" viewBox="0 0 80 80" fill="none" xmlns="http://www.w3.org/2000/svg">
<path d="M30 53.3333H36.6667V26.6667H30V53.3333ZM40 6.66666C21.6 6.66666 6.66666 21.6 6.66666 40C6.66666 58.4 21.6 73.3333 40 73.3333C58.4 73.3333 73.3333 58.4 73.3333 40C73.3333 21.6 58.4 6.66666 40 6.66666ZM40 66.6667C25.3 66.6667 13.3333 54.7 13.3333 40C13.3333 25.3 25.3 13.3333 40 13.3333C54.7 13.3333 66.6667 25.3 66.6667 40C66.6667 54.7 54.7 66.6667 40 66.6667ZM43.3333 53.3333H50V26.6667H43.3333V53.3333Z" fill="#58555C"/>
</svg>
